<svg width="130" height="130" viewBox="0 0 130 130" fill="none" xmlns="http://www.w3.org/2000/svg">
<path d="M22.8516 7.61719C22.8516 3.41782 19.4337 0 15.2344 0C11.035 0 7.61719 3.41782 7.61719 7.61719C7.61719 11.8166 11.035 15.2344 15.2344 15.2344C19.4337 15.2344 22.8516 11.8166 22.8516 7.61719Z" fill="#FDFDFD"/>
<path d="M2.22168 45.957H7.61719V61.1914C7.61719 65.3908 11.035 68.8086 15.2344 68.8086C19.4337 68.8086 22.8516 65.3908 22.8516 61.1914V45.957H28.2471C29.474 45.957 30.4688 44.9622 30.4688 43.7354V30.4688C30.4688 22.067 23.6361 15.2344 15.2344 15.2344C6.83266 15.2344 0 22.067 0 30.4688V43.7354C0 44.9622 0.994797 45.957 2.22168 45.957Z" fill="#FDFDFD"/>
<path d="M122.383 7.61719C122.383 3.41782 118.965 0 114.766 0C110.566 0 107.148 3.41782 107.148 7.61719C107.148 11.8166 110.566 15.2344 114.766 15.2344C118.965 15.2344 122.383 11.8166 122.383 7.61719Z" fill="#FDFDFD"/>
<path d="M114.766 15.2344C106.364 15.2344 99.5312 22.067 99.5312 30.4688V43.7354C99.5312 44.9622 100.526 45.957 101.753 45.957H107.148V61.1914C107.148 65.3908 110.566 68.8086 114.766 68.8086C118.965 68.8086 122.383 65.3908 122.383 61.1914V45.957H127.778C129.005 45.957 130 44.9622 130 43.7354V30.4688C130 22.067 123.167 15.2344 114.766 15.2344Z" fill="#FDFDFD"/>
<path d="M77.4672 71.9963C76.5815 65.8371 71.2227 61.1914 65 61.1914C58.7773 61.1914 53.4185 65.8371 52.5328 71.9993L47.5509 107.148H82.4491L77.4672 71.9963Z" fill="#FDFDFD"/>
<path d="M95.7227 114.766H34.2773C27.9684 114.766 22.8526 119.878 22.8516 126.191C22.8516 128.296 24.5555 130 26.6602 130H103.34C105.444 130 107.148 128.296 107.148 126.191C107.147 119.878 102.033 114.766 95.7227 114.766Z" fill="#FDFDFD"/>
<path d="M44.2085 76.4258H7.61719C3.40988 76.4258 0 79.8357 0 84.043C0 88.2493 3.40988 91.6602 7.61719 91.6602H42.0334L44.2085 76.4258Z" fill="#FDFDFD"/>
<path d="M122.383 76.4258H85.7925L87.9676 91.6602H122.383C126.59 91.6602 130 88.2493 130 84.043C130 79.8357 126.59 76.4258 122.383 76.4258Z" fill="#FDFDFD"/>
</svg>
