<svg width="100" height="130" viewBox="0 0 100 130" fill="none" xmlns="http://www.w3.org/2000/svg">
<path d="M-27.7783 45.957H-22.3828V61.1914C-22.3828 65.3908 -18.965 68.8086 -14.7656 68.8086C-10.5663 68.8086 -7.14844 65.3908 -7.14844 61.1914V45.957H-1.75293C-0.526047 45.957 0.46875 44.9622 0.46875 43.7354V30.4688C0.46875 22.067 -6.36391 15.2344 -14.7656 15.2344C-23.1673 15.2344 -30 22.067 -30 30.4688V43.7354C-30 44.9622 -29.0052 45.957 -27.7783 45.957Z" fill="#FDFDFD"/>
<path d="M92.3828 7.61719C92.3828 3.41782 88.965 0 84.7656 0C80.5663 0 77.1484 3.41782 77.1484 7.61719C77.1484 11.8166 80.5663 15.2344 84.7656 15.2344C88.965 15.2344 92.3828 11.8166 92.3828 7.61719Z" fill="#FDFDFD"/>
<path d="M84.7656 15.2344C76.3639 15.2344 69.5312 22.067 69.5312 30.4688V43.7354C69.5312 44.9622 70.526 45.957 71.7529 45.957H77.1484V61.1914C77.1484 65.3908 80.5663 68.8086 84.7656 68.8086C88.965 68.8086 92.3828 65.3908 92.3828 61.1914V45.957H97.7783C99.0052 45.957 100 44.9622 100 43.7354V30.4688C100 22.067 93.1673 15.2344 84.7656 15.2344Z" fill="#FDFDFD"/>
<path d="M47.4672 71.9963C46.5815 65.8371 41.2227 61.1914 35 61.1914C28.7773 61.1914 23.4185 65.8371 22.5328 71.9993L17.5509 107.148H52.4491L47.4672 71.9963Z" fill="#FDFDFD"/>
<path d="M65.7227 114.766H4.27734C-2.03163 114.766 -7.14745 119.878 -7.14844 126.191C-7.14844 128.296 -5.44449 130 -3.33984 130H73.3398C75.4445 130 77.1484 128.296 77.1484 126.191C77.1474 119.878 72.0326 114.766 65.7227 114.766Z" fill="#FDFDFD"/>
<path d="M14.2085 76.4258H-22.3828C-26.5901 76.4258 -30 79.8357 -30 84.043C-30 88.2493 -26.5901 91.6602 -22.3828 91.6602H12.0334L14.2085 76.4258Z" fill="#FDFDFD"/>
<path d="M92.3828 76.4258H55.7925L57.9676 91.6602H92.3828C96.5901 91.6602 100 88.2493 100 84.043C100 79.8357 96.5901 76.4258 92.3828 76.4258Z" fill="#FDFDFD"/>
</svg>
