<svg width="70" height="54" viewBox="0 0 70 54" fill="none" xmlns="http://www.w3.org/2000/svg">
<path d="M68.6738 17.8313C69.207 17.3953 70 17.8031 70 18.4922V47.25C70 50.9766 67.0605 54 63.4375 54H6.5625C2.93945 54 0 50.9766 0 47.25V18.5063C0 17.8031 0.779297 17.4094 1.32617 17.8453C4.38867 20.2922 8.44922 23.4 22.3945 33.8203C25.2793 35.9859 30.1465 40.5422 35 40.5141C39.8809 40.5563 44.8437 35.9016 47.6191 33.8203C61.5645 23.4 65.6113 20.2781 68.6738 17.8313ZM35 36C38.1719 36.0563 42.7383 31.8938 45.0352 30.1781C63.1777 16.6359 64.5586 15.4547 68.7422 12.0797C69.5352 11.4469 70 10.4625 70 9.42188V6.75C70 3.02344 67.0605 0 63.4375 0H6.5625C2.93945 0 0 3.02344 0 6.75V9.42188C0 10.4625 0.464844 11.4328 1.25781 12.0797C5.44141 15.4406 6.82227 16.6359 24.9648 30.1781C27.2617 31.8938 31.8281 36.0563 35 36Z" fill="black"/>
</svg>
