<svg width="130" height="130" viewBox="0 0 130 130" fill="none" xmlns="http://www.w3.org/2000/svg">
<path d="M117.588 69.3702C117.135 62.4775 117.285 64.6264 117.248 64.1977C115.653 45.7448 106.276 30.0345 90.1069 21.2958C86.8801 19.5523 83.3419 18.1249 79.674 17.9627C79.9628 14.7708 79.6077 12.2591 79.5876 12.12C79.4253 11.0081 78.5488 10.1349 77.4325 9.97291C77.0097 9.91173 67.3147 8.57824 61.4198 13.7442V12.6927C61.4198 5.69395 55.7034 0 48.6769 0C47.2694 0 46.1284 1.1365 46.1284 2.53854C46.1284 3.94058 47.2694 5.07708 48.6769 5.07708C52.8928 5.07708 56.3227 8.49345 56.3227 12.6927V25.5986C51.8089 24.3212 45.7374 17.5337 37.7104 17.9665C33.5506 18.196 29.8236 19.9765 27.382 21.2961C7.29516 32.1519 -1.63786 53.4203 0.245797 75.4802C0.390047 77.1706 2.13047 78.2492 3.71772 77.6278C15.3318 73.0792 28.0569 81.6555 28.0569 94.1798C28.0569 97.4185 27.1736 100.589 25.5025 103.348C24.5597 104.904 25.5208 106.921 27.3316 107.173C35.9338 108.372 40.8258 117.74 36.9978 125.425C36.2784 126.869 37.0771 128.607 38.6411 129.011C43.7118 130.321 48.5658 130.276 53.0824 128.999C54.6536 128.555 56.3484 128.331 58.1197 128.331C58.8498 128.366 61.3775 128.144 64.4014 128.998C70.5539 130.738 77.1769 130.033 83.0386 127.61C105.472 136.399 130 119.864 130 95.703C130 85.1302 125.167 75.6615 117.588 69.3702V69.3702ZM74.6821 14.8581C74.7068 15.9012 74.6714 17.2557 74.4561 18.6895C69.2898 20.3248 64.4972 24.5228 61.5075 25.4981C61.7236 23.0312 62.4232 19.89 64.4501 17.8695C67.2168 15.114 71.9827 14.7906 74.6821 14.8581ZM65.7934 124.114C63.7724 123.543 61.6102 123.254 59.3664 123.254C58.623 123.292 55.5107 123.037 51.6924 124.114C48.8411 124.92 45.8393 125.103 42.7382 124.662C45.3462 115.528 40.2261 106.02 31.3991 102.954C38.4928 85.9555 23.355 67.778 5.1327 71.896C4.39998 51.6816 13.4793 34.5863 29.8129 25.7586C33.0067 24.0326 35.6058 23.1675 37.99 23.036C42.6455 22.7801 46.9671 26.4854 51.8769 29.2224C56.1132 31.5858 61.376 31.586 65.6117 29.2227C69.5992 26.9994 73.2164 24.1248 76.9251 23.2749C77.9224 23.167 80.7638 22.0231 87.6765 25.7586C101.965 33.4811 110.662 47.2765 112.168 64.6069L112.241 65.7198C107.304 62.9901 101.629 61.4327 95.5942 61.4327C76.6226 61.4327 61.1884 76.8061 61.1884 95.703C61.1884 107.644 67.3532 118.177 76.6779 124.314C72.8981 125.156 69.2501 125.092 65.7934 124.114V124.114ZM95.5942 124.896C79.4334 124.896 66.2856 111.8 66.2856 95.703C66.2856 79.6058 79.4334 66.5098 95.5942 66.5098C111.755 66.5098 124.903 79.6058 124.903 95.703C124.903 111.8 111.755 124.896 95.5942 124.896Z" fill="white"/>
<path d="M130 95.5C130 76.4772 114.299 61 95 61C75.7015 61 60 76.4772 60 95.5C60 114.523 75.7015 130 95 130C114.299 130 130 114.523 130 95.5ZM63.4971 95.5C63.4971 78.3766 77.6285 64.4472 95 64.4472C112.372 64.4472 126.503 78.3766 126.503 95.5C126.503 112.623 112.372 126.553 95 126.553C77.6285 126.553 63.4971 112.623 63.4971 95.5Z" fill="white"/>
<path d="M96.2418 111.709L106.077 102.014C106.762 101.339 106.762 100.256 106.077 99.5804C105.391 98.905 104.292 98.905 103.607 99.5804L96.7557 106.334V80.5153C96.7557 79.5585 95.9706 78.7847 95 78.7847C94.0293 78.7847 93.2443 79.5585 93.2443 80.5153V106.32L86.3927 99.5663C85.7075 98.8909 84.6084 98.8909 83.9233 99.5663C83.2381 100.242 83.2381 101.325 83.9233 102L93.7581 111.695C94.1007 112.032 94.5432 112.201 95 112.201C95.4567 112.201 95.8992 112.046 96.2418 111.709Z" fill="white"/>
</svg>
