<svg width="130" height="130" viewBox="0 0 130 130" fill="none" xmlns="http://www.w3.org/2000/svg">
<path d="M92.2581 67.0968H37.7419C35.4292 67.0968 33.5484 68.9776 33.5484 71.2904V104.839C33.5484 107.151 35.4292 109.032 37.7419 109.032H92.2581C94.5708 109.032 96.4516 107.151 96.4516 104.839V71.2904C96.4516 68.9776 94.5708 67.0968 92.2581 67.0968ZM49.7586 91.2936L53.5516 87.5005L55.8497 88.6474L56.8205 88.1044C57.9423 87.4754 59.1584 86.9742 60.4374 86.6115L61.5047 86.3095L62.3182 83.871H67.6839L68.4995 86.3116L69.5668 86.6136C70.8437 86.9763 72.0599 87.4774 73.1837 88.1065L74.1545 88.6495L76.4526 87.5026L80.2457 91.2957L79.0987 93.5937L79.6418 94.5645C80.2708 95.6863 80.7719 96.9045 81.1347 98.1815L81.4366 99.2508L83.871 100.06V104.839H77.394C77.5094 104.149 77.5807 103.453 77.5807 102.742C77.5807 95.8037 71.9382 90.1613 65 90.1613C58.0618 90.1613 52.4194 95.8037 52.4194 102.742C52.4194 103.453 52.4928 104.149 52.6081 104.839H46.129V100.06L48.5697 99.2466L48.8716 98.1773C49.2344 96.9025 49.7355 95.6842 50.3645 94.5604L50.9076 93.5895L49.7586 91.2936ZM56.6129 102.742C56.6129 98.1165 60.3745 94.3549 65 94.3549C69.6255 94.3549 73.3871 98.1165 73.3871 102.742C73.3871 103.459 73.2655 104.155 73.0894 104.839H56.9086C56.7324 104.155 56.6129 103.459 56.6129 102.742ZM88.0645 104.839V97.0366L84.8271 95.9568C84.5419 95.1181 84.2044 94.3004 83.8207 93.512L85.345 90.4654L77.2766 82.397L74.23 83.9213C73.4416 83.5355 72.626 83.2 71.7852 82.9149L70.7053 79.6774H59.2968L58.2169 82.9149C57.3761 83.2021 56.5605 83.5376 55.7721 83.9213L52.7255 82.397L44.6571 90.4654L46.1815 93.512C45.7957 94.3004 45.4581 95.1181 45.175 95.9568L41.9355 97.0366V104.839H37.7419V71.2904H92.2581L92.2623 104.839H88.0645Z" fill="#FFFBFB"/>
<path d="M117.419 75.4839H121.613V79.6774H117.419V75.4839Z" fill="#FFFBFB"/>
<path d="M117.419 83.8708H121.613V88.0644H117.419V83.8708Z" fill="#FFFBFB"/>
<path d="M8.38708 83.8708H12.5806V88.0644H8.38708V83.8708Z" fill="#FFFBFB"/>
<path d="M8.38708 75.4839H12.5806V79.6774H8.38708V75.4839Z" fill="#FFFBFB"/>
<path d="M130 39.8387V23.0645C130 10.3476 119.652 0 106.935 0C98.4247 0 90.9958 4.64435 86.9994 11.5218C84.5566 4.8121 78.1342 0 70.5921 0H59.4079C54.0884 0 49.3224 2.39661 46.1164 6.16032C46.0452 2.75306 43.2627 0 39.8387 0H16.5289C7.41419 0 0 7.41419 0 16.5289C0 18.3111 0.287258 20.0682 0.847097 21.754L1.70677 24.3373C0.65 25.74 0 27.4656 0 29.3548C0 33.9803 3.76161 37.7419 8.3871 37.7419H9.12097C10.1421 40.6166 12.1718 43.0132 14.7948 44.4977C10.9305 47.1439 8.3871 51.5869 8.3871 56.6129V60.8064V62.9032V67.0968H0V96.4516H8.3871V109.032H25.1613V113.226H23.0645C19.5965 113.226 16.7742 116.048 16.7742 119.516C16.7742 125.297 21.4773 130 27.2581 130H102.742C108.523 130 113.226 125.297 113.226 119.516C113.226 116.048 110.404 113.226 106.935 113.226H104.839V109.032H121.613V96.4516H130V67.0968H121.613V62.9032V60.8064V56.6129C121.613 55.4597 121.466 54.3421 121.212 53.2644C126.471 50.9537 130 45.7139 130 39.8387ZM104.839 41.9355C100.213 41.9355 96.4516 38.1739 96.4516 33.5484V20.8419C100.274 20.3827 103.811 18.6697 106.575 15.9061L106.935 15.5455L107.296 15.9061C110.06 18.6697 113.597 20.3848 117.419 20.8419V33.5484C117.419 38.1739 113.658 41.9355 109.032 41.9355H104.839ZM106.935 46.129C112.716 46.129 117.419 50.8321 117.419 56.6129V58.7097H96.4516V56.6129C96.4516 50.8321 101.155 46.129 106.935 46.129ZM92.2581 56.6129V58.7097H79.6774V56.6129C79.6774 51.5869 77.134 47.1439 73.2697 44.4977C75.8906 43.0132 77.9224 40.6166 78.9435 37.7419H79.6774C81.2123 37.7419 82.6318 37.2974 83.871 36.5761V39.8387C83.871 45.7139 87.3998 50.9537 92.6585 53.2644C92.4048 54.3421 92.2581 55.4597 92.2581 56.6129V56.6129ZM31.3342 44.4977C33.9552 43.0132 35.9869 40.6166 37.0081 37.7419H37.7419C40.2602 37.7419 42.4932 36.6055 44.0323 34.8442C45.5713 36.6055 47.8044 37.7419 50.3226 37.7419H51.0565C52.0776 40.6166 54.1073 43.0132 56.7303 44.4977C52.866 47.1439 50.3226 51.5869 50.3226 56.6129V58.7097H37.7419V56.6129C37.7419 51.5869 35.1985 47.1439 31.3342 44.4977ZM41.4805 18.1413C41.3044 19.2903 41.0674 20.4289 40.7864 21.5611C39.8408 21.19 38.8176 20.9677 37.7419 20.9677V20.2339C39.1111 19.7474 40.3755 19.0408 41.4805 18.1413V18.1413ZM50.3226 33.5484C48.0098 33.5484 46.129 31.6676 46.129 29.3548C46.129 27.0421 48.0098 25.1613 50.3226 25.1613V33.5484ZM37.7419 25.1613C40.0547 25.1613 41.9355 27.0421 41.9355 29.3548C41.9355 31.6676 40.0547 33.5484 37.7419 33.5484V25.1613ZM67.0968 41.9355H62.9032C58.2777 41.9355 54.5161 38.1739 54.5161 33.5484V23.0645C54.5161 21.9071 55.4555 20.9677 56.6129 20.9677H65C67.5623 20.9677 69.7702 19.4308 70.7494 17.2271C73.5381 17.94 75.4839 20.4415 75.4839 23.3224V33.5484C75.4839 38.1739 71.7223 41.9355 67.0968 41.9355ZM54.5161 56.6129C54.5161 50.8321 59.2192 46.129 65 46.129C70.7808 46.129 75.4839 50.8321 75.4839 56.6129V58.7097H54.5161V56.6129ZM79.6774 25.1613C81.9902 25.1613 83.871 27.0421 83.871 29.3548C83.871 31.6676 81.9902 33.5484 79.6774 33.5484V25.1613ZM59.4079 4.19355H70.5921C77.914 4.19355 83.871 10.1505 83.871 17.4724C83.871 18.9255 83.6068 20.366 83.1413 21.7373C82.0824 21.2529 80.9166 20.9677 79.6774 20.9677H79.3776C78.5074 17.1935 75.6244 14.1239 71.7348 13.151L71.0597 12.9811C70.3153 10.335 67.881 8.3871 65 8.3871H62.9032V12.5806H65C66.1574 12.5806 67.0968 13.52 67.0968 14.6774C67.0968 15.8348 66.1574 16.7742 65 16.7742H56.6129C53.8829 16.7742 51.5764 18.5334 50.7084 20.9677H50.3226C49.0834 20.9677 47.9176 21.2529 46.8587 21.7373C46.3932 20.366 46.129 18.9255 46.129 17.4724C46.129 10.1505 52.086 4.19355 59.4079 4.19355V4.19355ZM4.19355 29.3548C4.19355 27.0421 6.07435 25.1613 8.3871 25.1613V33.5484C6.07435 33.5484 4.19355 31.6676 4.19355 29.3548ZM8.68694 20.9677H8.3871C7.26323 20.9677 6.19597 21.1984 5.21677 21.5989L4.82677 20.4289C4.40742 19.1708 4.19355 17.8582 4.19355 16.5289C4.19355 9.72693 9.72693 4.19355 16.5289 4.19355H39.8387C40.9961 4.19355 41.9355 5.1329 41.9355 6.29032V8.3871C41.9355 13.0126 38.1739 16.7742 33.5484 16.7742H23.0645C21.9071 16.7742 20.9677 15.8348 20.9677 14.6774C20.9677 13.52 21.9071 12.5806 23.0645 12.5806H25.1613V8.3871H23.0645C20.1898 8.3871 17.7848 10.3371 17.0384 12.9748L16.3297 13.151C12.4402 14.1239 9.5571 17.1935 8.68694 20.9677V20.9677ZM20.9677 41.9355C16.3423 41.9355 12.5806 38.1739 12.5806 33.5484V23.3224C12.5806 20.4394 14.5306 17.9358 17.3256 17.225C18.3048 19.4245 20.5044 20.9677 23.0645 20.9677H33.5484V33.5484C33.5484 38.1739 29.7868 41.9355 25.1613 41.9355H20.9677ZM12.5806 56.6129C12.5806 50.8321 17.2837 46.129 23.0645 46.129C28.8453 46.129 33.5484 50.8321 33.5484 56.6129V58.7097H12.5806V56.6129ZM4.19355 71.2903H16.7742V92.2581H4.19355V71.2903ZM12.5806 104.839V96.4516H20.9677V67.0968H12.5806V62.9032H27.3126C25.9811 64.6603 25.1613 66.8242 25.1613 69.1935V104.839H12.5806ZM109.032 119.516C109.032 122.984 106.21 125.806 102.742 125.806H27.2581C23.79 125.806 20.9677 122.984 20.9677 119.516C20.9677 118.359 21.9071 117.419 23.0645 117.419H106.935C108.093 117.419 109.032 118.359 109.032 119.516ZM29.3548 113.226V69.1935C29.3548 65.7255 32.1771 62.9032 35.6452 62.9032H37.7419H92.2581H94.3548C97.8229 62.9032 100.645 65.7255 100.645 69.1935V113.226H29.3548ZM125.806 92.2581H113.226V71.2903H125.806V92.2581ZM117.419 67.0968H109.032V96.4516H117.419V104.839H104.839V69.1935C104.839 66.8242 104.019 64.6603 102.687 62.9032H117.419V67.0968ZM119.686 49.3727C118.577 47.429 117.044 45.7579 115.205 44.4977C119.025 42.336 121.613 38.241 121.613 33.5484V16.7742H119.516C116.021 16.7742 112.733 15.4134 110.261 12.9413L106.935 9.61581L103.61 12.9413C101.138 15.4134 97.8502 16.7742 94.3548 16.7742H92.2581V33.5484C92.2581 38.2431 94.8455 42.336 98.6658 44.4977C96.8269 45.7579 95.2942 47.429 94.185 49.3727C90.5114 47.689 88.0645 43.9798 88.0645 39.8387V23.0645C88.0645 12.6582 96.5292 4.19355 106.935 4.19355C117.342 4.19355 125.806 12.6582 125.806 23.0645V39.8387C125.806 43.9798 123.36 47.689 119.686 49.3727Z" fill="#FFFBFB"/>
<path d="M29.3548 31.4517H25.1613C25.1613 32.6091 24.2219 33.5484 23.0645 33.5484C21.9071 33.5484 20.9677 32.6091 20.9677 31.4517H16.7742C16.7742 34.9197 19.5964 37.742 23.0645 37.742C26.5326 37.742 29.3548 34.9197 29.3548 31.4517Z" fill="#FFFBFB"/>
<path d="M65 33.5484C63.8426 33.5484 62.9032 32.6091 62.9032 31.4517H58.7097C58.7097 34.9197 61.5319 37.742 65 37.742C68.468 37.742 71.2903 34.9197 71.2903 31.4517H67.0968C67.0968 32.6091 66.1574 33.5484 65 33.5484Z" fill="#FFFBFB"/>
<path d="M113.226 31.4517H109.032C109.032 32.6091 108.093 33.5484 106.935 33.5484C105.778 33.5484 104.839 32.6091 104.839 31.4517H100.645C100.645 34.9197 103.467 37.742 106.935 37.742C110.404 37.742 113.226 34.9197 113.226 31.4517Z" fill="#FFFBFB"/>
</svg>
