<svg width="109" height="130" viewBox="0 0 109 130" fill="none" xmlns="http://www.w3.org/2000/svg">
<path d="M100.763 14.2362H79.8604V9.14949C79.8604 8.02774 78.8624 7.11825 77.6315 7.11825H66.0535C64.1907 2.85695 59.6642 0 54.5 0C49.3358 0 44.8093 2.85695 42.9465 7.11825H31.3682C30.1373 7.11825 29.1394 8.02774 29.1394 9.14949V14.2365H8.23698C3.69487 14.2365 0 17.604 0 21.7432V122.493C0 126.632 3.69515 130 8.23698 130H100.763C105.305 130 109 126.632 109 122.493V21.743C109 17.6038 105.305 14.2362 100.763 14.2362V14.2362ZM33.5973 11.1807H44.5713C45.6008 11.1807 46.4965 10.5381 46.738 9.62582C47.6048 6.35018 50.7968 4.06249 54.5 4.06249C58.2032 4.06249 61.3952 6.35018 62.2619 9.62582C62.5035 10.5381 63.3992 11.1807 64.4287 11.1807H75.4024V21.3545H33.5973V11.1807ZM104.542 122.493C104.542 124.392 102.847 125.937 100.763 125.937H8.23698C6.15301 125.937 4.45769 124.392 4.45769 122.493V21.743C4.45769 19.8438 6.15301 18.2987 8.23698 18.2987H29.1394V23.3857C29.1394 24.5075 30.1373 25.417 31.3682 25.417H77.6312C78.8621 25.417 79.8601 24.5075 79.8601 23.3857V18.2987H100.763C102.847 18.2987 104.542 19.8438 104.542 21.743V122.493H104.542ZM92.0859 47.2572H78.5958V42.6927C78.5958 41.571 77.5978 40.6615 76.3669 40.6615H32.6331C31.4022 40.6615 30.4042 41.571 30.4042 42.6927V47.2572H16.9141C15.6833 47.2572 14.6853 48.1667 14.6853 49.2884C14.6853 50.4102 15.6833 51.3197 16.9141 51.3197H30.4042V55.8839C30.4042 57.0057 31.4022 57.9151 32.6331 57.9151H76.3672C77.5981 57.9151 78.596 57.0057 78.596 55.8839V51.3197H89.8573V73.6459H78.596V69.0817C78.596 67.9599 77.5981 67.0504 76.3672 67.0504H32.6331C31.4022 67.0504 30.4042 67.9599 30.4042 69.0817V73.6459H16.9141C15.6833 73.6459 14.6853 74.5554 14.6853 75.6771V102.066C14.6853 103.188 15.6833 104.097 16.9141 104.097H30.4042V108.661C30.4042 109.783 31.4022 110.693 32.6331 110.693H76.3672C77.5981 110.693 78.596 109.783 78.596 108.661V104.097H92.0861C93.317 104.097 94.315 103.188 94.315 102.066C94.315 100.944 93.317 100.035 92.0861 100.035H78.596V95.4703C78.596 94.3486 77.5981 93.4391 76.3672 93.4391H32.6331C31.4022 93.4391 30.4042 94.3486 30.4042 95.4703V100.035H19.143V77.7084H30.4042V82.2726C30.4042 83.3943 31.4022 84.3038 32.6331 84.3038H76.3672C77.5981 84.3038 78.596 83.3943 78.596 82.2726V77.7084H92.0861C93.317 77.7084 94.315 76.7989 94.315 75.6771V49.2884C94.3147 48.1667 93.3167 47.2572 92.0859 47.2572V47.2572ZM74.1381 53.8527H34.8619V44.7242H74.1384V53.8527H74.1381ZM34.8619 97.5016H74.1384V106.63H34.8619V97.5016ZM74.1381 80.2413H34.8619V71.1129H74.1384V80.2413H74.1381Z" fill="white"/>
</svg>
