<svg width="109" height="130" viewBox="0 0 109 130" fill="none" xmlns="http://www.w3.org/2000/svg">
<path d="M71.2581 67.0968H16.7419C14.4292 67.0968 12.5484 68.9776 12.5484 71.2904V104.839C12.5484 107.151 14.4292 109.032 16.7419 109.032H71.2581C73.5708 109.032 75.4516 107.151 75.4516 104.839V71.2904C75.4516 68.9776 73.5708 67.0968 71.2581 67.0968ZM28.7586 91.2936L32.5516 87.5005L34.8497 88.6474L35.8205 88.1044C36.9423 87.4754 38.1584 86.9742 39.4374 86.6115L40.5047 86.3095L41.3182 83.871H46.6839L47.4995 86.3116L48.5668 86.6136C49.8437 86.9763 51.0599 87.4774 52.1837 88.1065L53.1545 88.6495L55.4526 87.5026L59.2457 91.2957L58.0987 93.5937L58.6418 94.5645C59.2708 95.6863 59.7719 96.9045 60.1347 98.1815L60.4366 99.2508L62.871 100.06V104.839H56.394C56.5094 104.149 56.5807 103.453 56.5807 102.742C56.5807 95.8037 50.9382 90.1613 44 90.1613C37.0618 90.1613 31.4194 95.8037 31.4194 102.742C31.4194 103.453 31.4928 104.149 31.6081 104.839H25.129V100.06L27.5697 99.2466L27.8716 98.1773C28.2344 96.9025 28.7355 95.6842 29.3645 94.5604L29.9076 93.5895L28.7586 91.2936ZM35.6129 102.742C35.6129 98.1165 39.3745 94.3549 44 94.3549C48.6255 94.3549 52.3871 98.1165 52.3871 102.742C52.3871 103.459 52.2655 104.155 52.0894 104.839H35.9086C35.7324 104.155 35.6129 103.459 35.6129 102.742ZM67.0645 104.839V97.0366L63.8271 95.9568C63.5419 95.1181 63.2044 94.3004 62.8207 93.512L64.345 90.4654L56.2766 82.397L53.23 83.9213C52.4416 83.5355 51.626 83.2 50.7852 82.9149L49.7053 79.6774H38.2968L37.2169 82.9149C36.3761 83.2021 35.5605 83.5376 34.7721 83.9213L31.7255 82.397L23.6571 90.4654L25.1815 93.512C24.7957 94.3004 24.4581 95.1181 24.175 95.9568L20.9355 97.0366V104.839H16.7419V71.2904H71.2581L71.2623 104.839H67.0645Z" fill="#FFFBFB"/>
<path d="M96.4194 75.4839H100.613V79.6774H96.4194V75.4839Z" fill="#FFFBFB"/>
<path d="M96.4194 83.8708H100.613V88.0644H96.4194V83.8708Z" fill="#FFFBFB"/>
<path d="M109 39.8387V23.0645C109 10.3476 98.6524 0 85.9355 0C77.4247 0 69.9958 4.64435 65.9994 11.5218C63.5566 4.8121 57.1342 0 49.5921 0H38.4079C33.0884 0 28.3224 2.39661 25.1164 6.16032C25.0452 2.75306 22.2627 0 18.8387 0H-4.47113C-13.5858 0 -21 7.41419 -21 16.5289C-21 18.3111 -20.7127 20.0682 -20.1529 21.754L-19.2932 24.3373C-20.35 25.74 -21 27.4656 -21 29.3548C-21 33.9803 -17.2384 37.7419 -12.6129 37.7419H-11.879C-10.8579 40.6166 -8.82823 43.0132 -6.20516 44.4977C-10.0695 47.1439 -12.6129 51.5869 -12.6129 56.6129V60.8064V62.9032V67.0968H-21V96.4516H-12.6129V109.032H4.16129V113.226H2.06452C-1.40355 113.226 -4.22581 116.048 -4.22581 119.516C-4.22581 125.297 0.477257 130 6.25806 130H81.7419C87.5227 130 92.2258 125.297 92.2258 119.516C92.2258 116.048 89.4035 113.226 85.9355 113.226H83.8387V109.032H100.613V96.4516H109V67.0968H100.613V62.9032V60.8064V56.6129C100.613 55.4597 100.466 54.3421 100.212 53.2644C105.471 50.9537 109 45.7139 109 39.8387ZM83.8387 41.9355C79.2132 41.9355 75.4516 38.1739 75.4516 33.5484V20.8419C79.274 20.3827 82.8113 18.6697 85.5748 15.9061L85.9355 15.5455L86.2961 15.9061C89.0597 18.6697 92.5969 20.3848 96.4193 20.8419V33.5484C96.4193 38.1739 92.6577 41.9355 88.0323 41.9355H83.8387ZM85.9355 46.129C91.7163 46.129 96.4193 50.8321 96.4193 56.6129V58.7097H75.4516V56.6129C75.4516 50.8321 80.1547 46.129 85.9355 46.129ZM71.2581 56.6129V58.7097H58.6774V56.6129C58.6774 51.5869 56.134 47.1439 52.2697 44.4977C54.8906 43.0132 56.9224 40.6166 57.9435 37.7419H58.6774C60.2123 37.7419 61.6318 37.2974 62.871 36.5761V39.8387C62.871 45.7139 66.3998 50.9537 71.6585 53.2644C71.4048 54.3421 71.2581 55.4597 71.2581 56.6129V56.6129ZM10.3342 44.4977C12.9552 43.0132 14.9869 40.6166 16.0081 37.7419H16.7419C19.2602 37.7419 21.4932 36.6055 23.0323 34.8442C24.5713 36.6055 26.8044 37.7419 29.3226 37.7419H30.0565C31.0776 40.6166 33.1073 43.0132 35.7303 44.4977C31.866 47.1439 29.3226 51.5869 29.3226 56.6129V58.7097H16.7419V56.6129C16.7419 51.5869 14.1985 47.1439 10.3342 44.4977ZM20.4805 18.1413C20.3044 19.2903 20.0674 20.4289 19.7864 21.5611C18.8408 21.19 17.8176 20.9677 16.7419 20.9677V20.2339C18.1111 19.7474 19.3755 19.0408 20.4805 18.1413V18.1413ZM29.3226 33.5484C27.0098 33.5484 25.129 31.6676 25.129 29.3548C25.129 27.0421 27.0098 25.1613 29.3226 25.1613V33.5484ZM16.7419 25.1613C19.0547 25.1613 20.9355 27.0421 20.9355 29.3548C20.9355 31.6676 19.0547 33.5484 16.7419 33.5484V25.1613ZM46.0968 41.9355H41.9032C37.2777 41.9355 33.5161 38.1739 33.5161 33.5484V23.0645C33.5161 21.9071 34.4555 20.9677 35.6129 20.9677H44C46.5623 20.9677 48.7702 19.4308 49.7494 17.2271C52.5381 17.94 54.4839 20.4415 54.4839 23.3224V33.5484C54.4839 38.1739 50.7223 41.9355 46.0968 41.9355ZM33.5161 56.6129C33.5161 50.8321 38.2192 46.129 44 46.129C49.7808 46.129 54.4839 50.8321 54.4839 56.6129V58.7097H33.5161V56.6129ZM58.6774 25.1613C60.9902 25.1613 62.871 27.0421 62.871 29.3548C62.871 31.6676 60.9902 33.5484 58.6774 33.5484V25.1613ZM38.4079 4.19355H49.5921C56.914 4.19355 62.871 10.1505 62.871 17.4724C62.871 18.9255 62.6068 20.366 62.1413 21.7373C61.0824 21.2529 59.9166 20.9677 58.6774 20.9677H58.3776C57.5074 17.1935 54.6244 14.1239 50.7348 13.151L50.0597 12.9811C49.3153 10.335 46.881 8.3871 44 8.3871H41.9032V12.5806H44C45.1574 12.5806 46.0968 13.52 46.0968 14.6774C46.0968 15.8348 45.1574 16.7742 44 16.7742H35.6129C32.8829 16.7742 30.5764 18.5334 29.7084 20.9677H29.3226C28.0834 20.9677 26.9176 21.2529 25.8587 21.7373C25.3932 20.366 25.129 18.9255 25.129 17.4724C25.129 10.1505 31.086 4.19355 38.4079 4.19355V4.19355ZM-16.8065 29.3548C-16.8065 27.0421 -14.9256 25.1613 -12.6129 25.1613V33.5484C-14.9256 33.5484 -16.8065 31.6676 -16.8065 29.3548ZM-12.3131 20.9677H-12.6129C-13.7368 20.9677 -14.804 21.1984 -15.7832 21.5989L-16.1732 20.4289C-16.5926 19.1708 -16.8065 17.8582 -16.8065 16.5289C-16.8065 9.72693 -11.2731 4.19355 -4.47113 4.19355H18.8387C19.9961 4.19355 20.9355 5.1329 20.9355 6.29032V8.3871C20.9355 13.0126 17.1739 16.7742 12.5484 16.7742H2.06452C0.907096 16.7742 -0.032259 15.8348 -0.032259 14.6774C-0.032259 13.52 0.907096 12.5806 2.06452 12.5806H4.16129V8.3871H2.06452C-0.810162 8.3871 -3.21516 10.3371 -3.96161 12.9748L-4.67032 13.151C-8.55984 14.1239 -11.4429 17.1935 -12.3131 20.9677V20.9677ZM-0.032259 41.9355C-4.65774 41.9355 -8.41936 38.1739 -8.41936 33.5484V23.3224C-8.41936 20.4394 -6.46936 17.9358 -3.67436 17.225C-2.69516 19.4245 -0.495646 20.9677 2.06452 20.9677H12.5484V33.5484C12.5484 38.1739 8.78677 41.9355 4.16129 41.9355H-0.032259ZM-8.41936 56.6129C-8.41936 50.8321 -3.71629 46.129 2.06452 46.129C7.84532 46.129 12.5484 50.8321 12.5484 56.6129V58.7097H-8.41936V56.6129ZM-16.8065 71.2903H-4.22581V92.2581H-16.8065V71.2903ZM-8.41936 104.839V96.4516H-0.032259V67.0968H-8.41936V62.9032H6.31258C4.98113 64.6603 4.16129 66.8242 4.16129 69.1935V104.839H-8.41936ZM88.0323 119.516C88.0323 122.984 85.21 125.806 81.7419 125.806H6.25806C2.79 125.806 -0.032259 122.984 -0.032259 119.516C-0.032259 118.359 0.907096 117.419 2.06452 117.419H85.9355C87.0929 117.419 88.0323 118.359 88.0323 119.516ZM8.35484 113.226V69.1935C8.35484 65.7255 11.1771 62.9032 14.6452 62.9032H16.7419H71.2581H73.3548C76.8229 62.9032 79.6452 65.7255 79.6452 69.1935V113.226H8.35484ZM104.806 92.2581H92.2258V71.2903H104.806V92.2581ZM96.4193 67.0968H88.0323V96.4516H96.4193V104.839H83.8387V69.1935C83.8387 66.8242 83.0189 64.6603 81.6874 62.9032H96.4193V67.0968ZM98.686 49.3727C97.5768 47.429 96.044 45.7579 94.2052 44.4977C98.0255 42.336 100.613 38.241 100.613 33.5484V16.7742H98.5161C95.0208 16.7742 91.7331 15.4134 89.261 12.9413L85.9355 9.61581L82.61 12.9413C80.1379 15.4134 76.8502 16.7742 73.3548 16.7742H71.2581V33.5484C71.2581 38.2431 73.8455 42.336 77.6658 44.4977C75.8269 45.7579 74.2942 47.429 73.185 49.3727C69.5114 47.689 67.0645 43.9798 67.0645 39.8387V23.0645C67.0645 12.6582 75.5292 4.19355 85.9355 4.19355C96.3418 4.19355 104.806 12.6582 104.806 23.0645V39.8387C104.806 43.9798 102.36 47.689 98.686 49.3727Z" fill="#FFFBFB"/>
<path d="M8.35481 31.4517H4.16127C4.16127 32.6091 3.22191 33.5484 2.06449 33.5484C0.907073 33.5484 -0.0322819 32.6091 -0.0322819 31.4517H-4.22583C-4.22583 34.9197 -1.40357 37.742 2.06449 37.742C5.53256 37.742 8.35481 34.9197 8.35481 31.4517Z" fill="#FFFBFB"/>
<path d="M44 33.5484C42.8426 33.5484 41.9032 32.6091 41.9032 31.4517H37.7097C37.7097 34.9197 40.5319 37.742 44 37.742C47.468 37.742 50.2903 34.9197 50.2903 31.4517H46.0968C46.0968 32.6091 45.1574 33.5484 44 33.5484Z" fill="#FFFBFB"/>
<path d="M92.2258 31.4517H88.0322C88.0322 32.6091 87.0929 33.5484 85.9355 33.5484C84.778 33.5484 83.8387 32.6091 83.8387 31.4517H79.6451C79.6451 34.9197 82.4674 37.742 85.9355 37.742C89.4035 37.742 92.2258 34.9197 92.2258 31.4517Z" fill="#FFFBFB"/>
</svg>
