<svg width="70" height="70" viewBox="0 0 70 70" fill="none" xmlns="http://www.w3.org/2000/svg">
<path d="M65 0H4.98438C2.23438 0 0 2.26563 0 5.04688V64.9531C0 67.7344 2.23438 70 4.98438 70H65C67.75 70 70 67.7344 70 64.9531V5.04688C70 2.26563 67.75 0 65 0ZM21.1562 60H10.7812V26.5938H21.1719V60H21.1562ZM15.9688 22.0312C12.6406 22.0312 9.95312 19.3281 9.95312 16.0156C9.95312 12.7031 12.6406 10 15.9688 10C19.2812 10 21.9844 12.7031 21.9844 16.0156C21.9844 19.3438 19.2969 22.0312 15.9688 22.0312ZM60.0469 60H49.6719V43.75C49.6719 39.875 49.5938 34.8906 44.2812 34.8906C38.875 34.8906 38.0469 39.1094 38.0469 43.4688V60H27.6719V26.5938H37.625V31.1562H37.7656C39.1562 28.5312 42.5469 25.7656 47.5938 25.7656C58.0938 25.7656 60.0469 32.6875 60.0469 41.6875V60Z" fill="black"/>
</svg>
