<svg width="25" height="25" viewBox="0 0 25 25" fill="none" xmlns="http://www.w3.org/2000/svg">
<g clip-path="url(#clip0_509_131)">
<path d="M11.875 9.27233V12.5975C13.1494 12.8856 14.2822 13.3592 15.4687 13.6864V10.3563C14.1992 10.0731 13.0566 9.59948 11.875 9.27233V9.27233ZM22.7783 3.26648C21.1035 4.04284 19.043 4.82409 17.0654 4.82409C14.4531 4.82409 12.29 3.12487 8.99902 3.12487C7.77832 3.12487 6.68945 3.33972 5.67871 3.71081C5.81543 3.35437 5.87891 2.96862 5.85449 2.55847C5.7666 1.17175 4.62891 0.0584676 3.2373 -0.000126142C1.6748 -0.0636027 0.390625 1.1864 0.390625 2.73425C0.390625 3.66198 0.854492 4.4823 1.5625 4.97546V23.828C1.5625 24.4774 2.08496 24.9999 2.73438 24.9999H3.51562C4.16504 24.9999 4.6875 24.4774 4.6875 23.828V19.2186C6.06934 18.6278 7.79297 18.1395 10.2734 18.1395C12.8906 18.1395 15.0488 19.8387 18.3398 19.8387C20.6934 19.8387 22.5732 19.0428 24.3213 17.8417C24.7461 17.5487 24.9951 17.0702 24.9951 16.5526V4.68249C25 3.5448 23.8135 2.78796 22.7783 3.26648V3.26648ZM8.28125 15.8934C7.02148 16.0253 5.83984 16.2938 4.6875 16.704V13.2616C5.9668 12.8075 7.00684 12.5292 8.28125 12.412V15.8934ZM22.6562 9.32605C21.5039 9.80456 20.3955 10.2782 19.0625 10.493V13.9647C20.2734 13.7987 21.5723 13.3885 22.6562 12.6952V16.1376C21.4307 16.9237 20.2881 17.3436 19.0625 17.4608V13.9647C17.7441 14.1454 16.7236 14.038 15.4687 13.6913V16.9823C14.3018 16.621 13.1592 16.1669 11.875 15.9423V12.5975C10.9131 12.3827 9.88281 12.2655 8.28125 12.412V8.99401C7.1875 9.14538 6.10352 9.49206 4.6875 10.0145V6.57214C6.30859 5.97644 7.13379 5.60534 8.28125 5.49792V8.99401C9.59961 8.81335 10.6445 8.93054 11.875 9.27233V5.98132C13.0322 6.34265 14.1797 6.79675 15.4687 7.02136V10.3612C16.626 10.62 17.793 10.6981 19.0625 10.493V6.9823C20.3809 6.74792 21.6162 6.31823 22.6562 5.88366V9.32605Z" fill="white"/>
</g>
<defs>
<clipPath id="clip0_509_131">
<rect width="25" height="25" fill="white"/>
</clipPath>
</defs>
</svg>
