<svg width="25" height="25" viewBox="0 0 25 25" fill="none" xmlns="http://www.w3.org/2000/svg">
<path d="M18.75 15.625C17.6461 15.625 16.6315 16.0068 15.8306 16.6453L10.8264 13.5176C10.9746 12.8473 10.9746 12.1527 10.8264 11.4823L15.8306 8.35469C16.6315 8.99321 17.6461 9.375 18.75 9.375C21.3388 9.375 23.4375 7.27632 23.4375 4.6875C23.4375 2.09868 21.3388 0 18.75 0C16.1612 0 14.0625 2.09868 14.0625 4.6875C14.0625 5.03701 14.1011 5.37744 14.1736 5.70513L9.16943 8.83276C8.36851 8.19429 7.35391 7.8125 6.25 7.8125C3.66118 7.8125 1.5625 9.91118 1.5625 12.5C1.5625 15.0888 3.66118 17.1875 6.25 17.1875C7.35391 17.1875 8.36851 16.8057 9.16943 16.1672L14.1736 19.2949C14.0997 19.629 14.0624 19.9703 14.0625 20.3125C14.0625 22.9013 16.1612 25 18.75 25C21.3388 25 23.4375 22.9013 23.4375 20.3125C23.4375 17.7237 21.3388 15.625 18.75 15.625Z" fill="white"/>
</svg>
